<?xml version="1.0" encoding="UTF-8"?>
<svg id="a" data-name="Layer 1" xmlns="http://www.w3.org/2000/svg" width="1039.66" height="1082.96" viewBox="0 0 1039.66 1082.96">
  <defs>
    <style>
      .b {
        fill: #f2e9e4;
      }

      .c {
        fill: #b79586;
      }
    </style>
  </defs>
  <g>
    <path class="b" d="M735.75,629.59c-100.15,0-136.35-29.34-136.35-29.34v68.22c60.11,17.61,109.29,18.79,128.11,18.46h48.14v-57.33h-39.9Z"/>
    <path d="M666.15,509.74s2.27.63,7.79.63-.95,3.02-.95,3.02l-7.69-.83.85-2.82Z"/>
    <path class="b" d="M680.67,450.8c.12,0,.25-.04.37-.04h94.6v-57.02h-88.02c-48.25,0-87.41,38.8-88.05,86.9.38,20.89,7.82,41.61,20.63,57.84,16.16,19.21,40.36,31.43,67.43,31.43v.08h88.02v-59.61h-97.19c-.99,0-2.01-.25-3.04-.63-13.54-2.81-23.71-14.81-23.71-29.18,0-16.18,12.9-29.32,28.97-29.76Z"/>
    <path class="b" d="M587.77,597.11c-.02-.95-.05-1.89-.1-2.81-1.88-36.18-25.97-66.44-58.88-77.53,2.91-9.06,4.53-18.7,4.53-28.73,0-18.44-5.31-35.62-14.45-50.15,0,0,0,0,0,0,0,0,0,0,0,0-1.03-1.64-2.11-3.23-3.23-4.8-.02-.03-.05-.07-.07-.1-3.37-4.68-7.16-9.03-11.32-13.02-.13-.12-.26-.25-.39-.37-1.34-1.27-2.71-2.5-4.12-3.69h-.01c-2.9-2.45-5.95-4.72-9.13-6.8-.23-.15-.47-.3-.7-.45-1.34-.86-2.71-1.69-4.1-2.49-.27-.16-.54-.31-.81-.47-3.23-1.81-6.57-3.43-10.02-4.85-.34-.14-.68-.27-1.02-.4-1.36-.54-2.73-1.05-4.12-1.53-.47-.16-.95-.33-1.42-.48-1.41-.46-2.82-.89-4.26-1.28-.36-.1-.71-.21-1.07-.3-1.78-.47-3.59-.89-5.41-1.26-.34-.07-.69-.12-1.04-.19-1.47-.28-2.95-.52-4.44-.73-.58-.08-1.17-.15-1.76-.22-1.33-.16-2.68-.29-4.03-.4-.57-.04-1.13-.1-1.7-.13-1.88-.11-3.77-.19-5.68-.19h-144.36v147.74l-120.22-119.33c-18.33-18.2-43.12-28.41-68.95-28.41h-41.51l235.82,237.19c33.17,29.69,78.26,51.96,123.19,55.65,32.29,2.65,71.61,5.22,103.97-4.86l2.93-1.05c.19-.07.39-.14.58-.21l.84-.3h-.01c32.83-12.22,56.26-43.73,56.48-80.75,0-.29,0-.58,0-.86,0-.48-.02-.96-.03-1.43ZM516.28,624.42c-11.85,7.68-61.54,6.39-77.87,5.28-30.89-2.11-62.94-12.5-86.72-32.5v-142.55l3.89-3.89h93.31c.19,0,.4.05.6.07.46-.02.92-.07,1.39-.07,16.46,0,29.81,13.34,29.81,29.81s-12.79,29.2-28.76,29.75c-.15,0-.29.05-.44.05h-92.01c12.41,36.63,44.61,56.08,81.97,59.28,23.37,2,72.88-8.01,84.99,13.51,8.53,15.17,4.16,32-10.14,41.26Z"/>
    <path class="c" d="M123.44,563.71c-.48-25.82-11.14-50.41-29.67-68.4l-29.79-28.93h0s0,0,0,0h0s1.49,164.02,1.49,164.02l60.29,58.55-2.32-125.25Z"/>
  </g>
  <g>
    <polygon class="b" points="551.96 339.48 536.33 313.57 573.07 326.75 578.92 323.23 555.84 284.95 548.78 289.21 564.41 315.12 527.68 301.94 521.83 305.46 544.91 343.74 551.96 339.48"/>
    <path class="b" d="M582.11,306.97c2.04,2.24,4.43,3.98,7.16,5.21,2.73,1.24,5.67,1.91,8.82,2.03,3.15.12,6.38-.4,9.67-1.54,3.26-1.14,6.07-2.73,8.45-4.77,2.37-2.04,4.25-4.39,5.63-7.03,1.38-2.64,2.17-5.49,2.37-8.53.2-3.04-.25-6.13-1.34-9.27-1.09-3.14-2.66-5.82-4.7-8.06-2.04-2.24-4.43-3.98-7.16-5.21-2.73-1.23-5.66-1.91-8.79-2.04-3.13-.12-6.35.39-9.64,1.54-3.25,1.14-6.08,2.73-8.48,4.78-2.4,2.05-4.28,4.41-5.65,7.08-1.37,2.66-2.16,5.51-2.37,8.53-.21,3.02.23,6.11,1.33,9.24,1.09,3.14,2.66,5.82,4.7,8.06ZM584.35,289.83c.12-2.05.62-3.98,1.49-5.8.88-1.82,2.09-3.4,3.62-4.74,1.54-1.35,3.37-2.39,5.5-3.13,2.13-.74,4.23-1.07,6.29-.97,2.06.09,3.99.58,5.78,1.47,1.8.89,3.38,2.09,4.74,3.62s2.43,3.38,3.19,5.55c.76,2.17,1.07,4.28.95,6.33-.12,2.05-.61,3.98-1.47,5.79-.86,1.81-2.07,3.39-3.62,4.74-1.56,1.35-3.4,2.4-5.53,3.15-2.13.74-4.23,1.07-6.29.97-2.06-.09-3.99-.58-5.78-1.47-1.8-.88-3.38-2.1-4.75-3.65-1.38-1.55-2.43-3.39-3.17-5.52-.76-2.17-1.08-4.28-.96-6.33Z"/>
    <path class="b" d="M665.95,299.18l8.85-1.23-12.2-13.1c.2-.12.43-.21.62-.34,2.63-1.63,4.54-3.73,5.73-6.28,1.19-2.55,1.56-5.45,1.11-8.7-.45-3.25-1.6-5.94-3.45-8.1-1.84-2.15-4.26-3.66-7.24-4.53-2.98-.87-6.43-1.04-10.35-.49l-18.21,2.54,6.17,44.27,8.22-1.15-1.8-12.9,9.99-1.39c.59-.08,1.14-.2,1.7-.31l10.85,11.71ZM642.46,282.4l-2.46-17.64,9.61-1.34c3.63-.51,6.46-.13,8.51,1.13,2.04,1.26,3.26,3.31,3.66,6.13.39,2.78-.23,5.08-1.84,6.9-1.61,1.82-4.24,2.98-7.86,3.48l-9.61,1.34Z"/>
    <polygon class="b" points="690.06 298.47 698.35 298.69 699.36 261.03 714.16 261.42 714.35 254.4 676.44 253.39 676.25 260.41 691.06 260.81 690.06 298.47"/>
    <polygon class="b" points="729.6 282.45 752.22 287.16 748.32 305.91 756.45 307.6 765.55 263.85 757.43 262.15 753.67 280.22 731.04 275.51 734.8 257.44 726.67 255.75 717.57 299.51 725.69 301.2 729.6 282.45"/>
    <path class="b" d="M793.89,323.76c3.67,1.8,6.97,2.75,9.91,2.84,2.94.09,5.44-.48,7.5-1.72,2.06-1.24,3.61-2.93,4.67-5.07,1.03-2.1,1.46-4.05,1.27-5.85-.19-1.8-.78-3.44-1.78-4.93-1-1.49-2.23-2.9-3.68-4.23-1.46-1.33-2.94-2.62-4.47-3.87-1.52-1.25-2.88-2.42-4.06-3.53-1.19-1.11-2.03-2.24-2.52-3.41-.49-1.17-.44-2.36.16-3.58.51-1.03,1.25-1.8,2.24-2.31.99-.51,2.24-.7,3.77-.57,1.52.13,3.32.7,5.38,1.72,1.76.86,3.46,2.02,5.12,3.48,1.66,1.45,3.12,3.16,4.39,5.11l5.19-4.63c-1.19-2.01-2.83-3.9-4.89-5.68-2.07-1.78-4.3-3.26-6.71-4.44-3.67-1.8-6.96-2.75-9.89-2.83-2.92-.08-5.41.5-7.47,1.74-2.06,1.24-3.62,2.95-4.69,5.13-1.05,2.14-1.47,4.11-1.27,5.92.2,1.81.8,3.46,1.79,4.97.99,1.51,2.21,2.93,3.66,4.29,1.45,1.35,2.93,2.64,4.44,3.85,1.51,1.22,2.86,2.39,4.03,3.51,1.18,1.13,2.02,2.28,2.54,3.45.51,1.18.47,2.38-.13,3.6-.49.99-1.23,1.73-2.23,2.22-1,.48-2.26.63-3.78.45-1.52-.18-3.34-.78-5.44-1.82-2.49-1.22-4.7-2.83-6.66-4.84-1.95-2-3.43-4.03-4.41-6.08l-5.42,4.52c.99,2.24,2.69,4.51,5.12,6.82,2.42,2.31,5.2,4.23,8.34,5.77Z"/>
    <polygon class="b" points="822.83 339.67 829.65 344.41 851.14 313.47 863.31 321.91 867.31 316.14 836.16 294.51 832.15 300.28 844.32 308.73 822.83 339.67"/>
    <path class="b" d="M845.18,355.95l10.37-4.36,16.07,15.53-3.99,10.53,6.25,6.03,16.55-46.16-5.88-5.68-45.52,18.16,6.15,5.95ZM862.08,348.84l19.61-8.25-7.55,19.91-12.06-11.66Z"/>
    <path class="b" d="M880.61,393.73l10.64-7.51,5.82,8.24c.34.49.7.92,1.05,1.37l-5.43,15.01,5.16,7.3,6.05-16.85c.2.13.39.28.59.4,2.66,1.59,5.39,2.33,8.21,2.22,2.81-.11,5.56-1.11,8.24-3,2.68-1.89,4.55-4.15,5.61-6.78,1.06-2.63,1.3-5.47.71-8.52-.59-3.05-2.03-6.19-4.31-9.42l-10.61-15.02-36.51,25.79,4.79,6.78ZM919.88,388c-.18,2.4-1.44,4.42-3.77,6.06-2.29,1.62-4.62,2.13-6.97,1.53-2.35-.6-4.59-2.4-6.7-5.39l-5.6-7.93,14.55-10.28,5.6,7.93c2.11,2.99,3.07,5.68,2.89,8.08Z"/>
    <path class="b" d="M916.3,459.85c2.03,5.42,4.55,9.14,7.57,11.14,3.02,2.01,6.33,2.34,9.92,1,2.43-.91,4.26-2.22,5.48-3.93,1.23-1.71,1.92-3.66,2.07-5.85.04-.56.04-1.13.02-1.71,1.45,1.29,3.09,2.16,4.94,2.58,1.96.45,4.06.25,6.29-.58,3.31-1.24,5.46-3.54,6.45-6.91.99-3.37.55-7.57-1.33-12.59l-7.33-19.62-41.87,15.65,7.78,20.81ZM951.3,444.45c1.01,2.71,1.31,4.97.9,6.79-.41,1.81-1.6,3.08-3.55,3.81-1.92.72-3.62.52-5.12-.57-1.5-1.1-2.76-3-3.77-5.71l-4.12-11,11.54-4.32,4.11,11ZM929.61,440.02l4.7,12.56c1.09,2.91,1.43,5.33,1.04,7.25-.39,1.92-1.63,3.27-3.7,4.04-2.11.79-3.94.59-5.48-.61-1.54-1.2-2.85-3.25-3.94-6.16l-4.69-12.56,12.08-4.52Z"/>
    <path class="b" d="M929.24,486.94c-2.84,3.99-3.75,9-2.75,15.05.99,6,3.47,10.44,7.44,13.3,3.97,2.86,9.16,3.76,15.59,2.7l24.88-4.12-1.33-8.06-24.57,4.06c-4.54.75-7.99.33-10.37-1.26-2.38-1.59-3.86-4.17-4.45-7.74-.59-3.57-.02-6.5,1.72-8.79,1.73-2.29,4.87-3.81,9.4-4.56l24.57-4.06-1.36-8.19-24.88,4.12c-6.42,1.06-11.06,3.59-13.89,7.57Z"/>
    <path class="b" d="M973.99,536.67c-1.17-2.68-2.76-4.68-4.77-6.01-2-1.33-4.22-2.01-6.64-2.04-2.39-.03-4.35.43-5.89,1.38-1.55.96-2.79,2.21-3.73,3.75-.94,1.54-1.71,3.25-2.31,5.14-.6,1.89-1.13,3.77-1.58,5.66-.45,1.89-.94,3.6-1.45,5.15-.51,1.55-1.19,2.8-2.03,3.77-.84.97-1.95,1.44-3.31,1.42-1.11-.01-2.09-.37-2.96-1.06-.86-.69-1.54-1.77-2.03-3.22-.49-1.45-.72-3.35-.68-5.69.04-2.77.55-5.46,1.52-8.09.98-2.63,2.18-4.82,3.61-6.59l-6.41-2.97c-1.6,1.85-2.93,4.36-3.97,7.54-1.05,3.18-1.6,6.51-1.65,10-.06,4.09.5,7.48,1.68,10.18,1.17,2.7,2.76,4.71,4.77,6.04,2,1.33,4.19,2.01,6.58,2.04,2.34.03,4.29-.42,5.83-1.35,1.55-.94,2.78-2.18,3.69-3.72.92-1.54,1.66-3.26,2.25-5.14.58-1.89,1.11-3.78,1.58-5.69.48-1.91.96-3.64,1.45-5.18.49-1.55,1.16-2.79,2-3.74.85-.94,1.95-1.41,3.31-1.39,1.15.02,2.17.36,3.05,1.03.89.67,1.59,1.73,2.13,3.16.53,1.43.78,3.3.75,5.6-.03,1.96-.34,4-.95,6.12-.6,2.12-1.52,4.17-2.74,6.15l6.41,2.71c1.3-1.94,2.32-4.22,3.04-6.85.72-2.63,1.1-5.28,1.14-7.96.06-4.09-.5-7.47-1.68-10.15Z"/>
    <rect class="b" x="946.21" y="554.54" width="8.3" height="44.69" transform="translate(251.57 1441.57) rotate(-82.32)"/>
    <polygon class="b" points="924.37 596.43 953.47 604.7 917.63 620.14 915.76 626.71 958.75 638.93 961 631 931.9 622.73 967.74 607.3 969.61 600.73 926.62 588.5 924.37 596.43"/>
    <polygon class="b" points="896.72 665.93 902.95 669.04 914.23 646.49 925.25 652 915.6 671.3 921.71 674.35 931.36 655.05 941.75 660.25 930.87 682.01 937.1 685.12 951.69 655.93 911.71 635.95 896.72 665.93"/>
    <path class="b" d="M920.11,688.67c-1.93-1.39-3.81-2.14-5.62-2.24s-3.55.21-5.2.93c-1.65.73-3.26,1.69-4.84,2.89-1.57,1.2-3.09,2.44-4.54,3.73-1.45,1.29-2.83,2.42-4.14,3.39-1.31.97-2.58,1.61-3.83,1.92-1.24.31-2.42.06-3.52-.73-.9-.65-1.5-1.5-1.81-2.57-.31-1.06-.25-2.33.19-3.8.43-1.47,1.33-3.16,2.7-5.06,1.62-2.24,3.58-4.16,5.88-5.75,2.3-1.59,4.55-2.7,6.73-3.33l-3.55-6.1c-2.37.6-4.9,1.9-7.58,3.9-2.68,2-5.04,4.42-7.08,7.25-2.39,3.31-3.88,6.41-4.47,9.3-.59,2.88-.44,5.44.44,7.68.88,2.24,2.29,4.05,4.22,5.44,1.9,1.37,3.75,2.11,5.55,2.24,1.8.12,3.52-.19,5.16-.93,1.64-.74,3.23-1.71,4.78-2.92,1.56-1.21,3.08-2.46,4.56-3.76,1.48-1.29,2.87-2.43,4.16-3.42,1.29-.99,2.55-1.62,3.79-1.92,1.23-.29,2.4-.04,3.51.76.93.67,1.57,1.54,1.91,2.6.34,1.06.32,2.33-.07,3.81-.39,1.48-1.25,3.15-2.59,5.02-1.15,1.59-2.58,3.08-4.28,4.47-1.71,1.39-3.64,2.55-5.78,3.47l3.7,5.9c2.18-.84,4.32-2.13,6.42-3.87,2.1-1.74,3.93-3.7,5.5-5.88,2.39-3.31,3.87-6.4,4.45-9.27.57-2.87.42-5.42-.46-7.65-.88-2.24-2.31-4.06-4.27-5.48Z"/>
    <path class="b" d="M894,723.54c-1.69-1.68-3.42-2.72-5.2-3.1-1.78-.39-3.54-.36-5.28.1-1.75.45-3.49,1.15-5.24,2.09-1.74.94-3.43,1.92-5.07,2.97-1.64,1.04-3.18,1.94-4.62,2.69-1.45.76-2.8,1.19-4.08,1.29-1.28.11-2.4-.32-3.37-1.28-.78-.78-1.24-1.72-1.38-2.82-.14-1.1.12-2.34.78-3.73.66-1.38,1.82-2.91,3.47-4.57,1.95-1.96,4.19-3.54,6.72-4.75,2.53-1.21,4.92-1.95,7.17-2.22l-2.54-6.59c-2.44.21-5.14,1.1-8.1,2.66-2.96,1.56-5.68,3.57-8.14,6.04-2.88,2.89-4.84,5.72-5.88,8.48-1.03,2.75-1.29,5.31-.78,7.65.52,2.35,1.62,4.36,3.31,6.04,1.66,1.65,3.37,2.68,5.13,3.08,1.76.4,3.51.37,5.24-.1,1.73-.47,3.46-1.18,5.19-2.13,1.73-.95,3.43-1.95,5.1-2.99s3.22-1.95,4.65-2.72c1.43-.77,2.77-1.2,4.04-1.29,1.27-.09,2.38.34,3.35,1.3.81.81,1.31,1.77,1.47,2.86.17,1.1-.06,2.35-.67,3.75-.61,1.4-1.73,2.91-3.36,4.54-1.38,1.39-3.03,2.63-4.94,3.73-1.91,1.1-3.99,1.94-6.25,2.52l2.72,6.41c2.29-.49,4.61-1.42,6.95-2.81,2.34-1.39,4.46-3.03,6.35-4.93,2.89-2.89,4.84-5.71,5.86-8.45,1.02-2.74,1.27-5.29.76-7.63-.52-2.35-1.64-4.38-3.35-6.09Z"/>
    <path class="b" d="M843.17,761.28c-1.64-.78-3.37-1.15-5.17-1.1-1.8.04-3.66.33-5.57.84-1.91.52-3.78,1.09-5.61,1.74-1.83.64-3.54,1.16-5.11,1.57-1.58.41-3,.52-4.27.33-1.27-.19-2.26-.86-2.99-2.01-.59-.94-.82-1.96-.71-3.06.12-1.1.65-2.25,1.61-3.45.96-1.2,2.43-2.42,4.42-3.66,2.35-1.47,4.89-2.5,7.62-3.1,2.73-.6,5.23-.78,7.49-.54l-.97-6.99c-2.42-.34-5.25-.1-8.49.74-3.24.84-6.34,2.19-9.3,4.03-3.47,2.16-6.02,4.47-7.65,6.92s-2.46,4.87-2.5,7.28c-.03,2.4.59,4.61,1.85,6.64,1.24,1.98,2.67,3.37,4.29,4.17,1.62.79,3.33,1.16,5.12,1.09,1.79-.06,3.64-.36,5.54-.89,1.9-.53,3.78-1.12,5.64-1.75,1.86-.63,3.58-1.16,5.14-1.59,1.56-.43,2.97-.54,4.23-.34,1.25.2,2.24.87,2.96,2.03.61.97.87,2.02.78,3.12-.08,1.11-.59,2.27-1.5,3.5-.92,1.23-2.35,2.45-4.3,3.66-1.66,1.04-3.55,1.87-5.66,2.51-2.11.64-4.33.98-6.66,1.03l1.19,6.86c2.34.05,4.8-.34,7.41-1.16,2.6-.82,5.04-1.94,7.31-3.36,3.47-2.16,6.01-4.46,7.62-6.9,1.61-2.44,2.44-4.86,2.47-7.26.03-2.4-.6-4.63-1.88-6.69-1.26-2.02-2.71-3.42-4.35-4.21Z"/>
    <polygon class="b" points="764.31 772.42 766.98 778.85 790.27 769.15 795 780.53 775.08 788.82 777.7 795.13 797.63 786.83 802.1 797.56 779.64 806.91 782.31 813.34 812.44 800.8 795.25 759.54 764.31 772.42"/>
    <path class="b" d="M749.07,776.41l2.83,12.71-9.85,2.19c-.58.13-1.12.29-1.67.44l-11.75-10.8-8.73,1.94,13.22,12.08c-.19.13-.41.25-.6.38-2.49,1.84-4.23,4.08-5.21,6.72-.98,2.64-1.12,5.56-.41,8.76.71,3.2,2.08,5.8,4.09,7.79,2.01,1.99,4.54,3.3,7.58,3.94,3.04.63,6.49.52,10.36-.34l17.95-4-9.71-43.63-8.1,1.81ZM747.78,815.29c-3.57.79-6.43.65-8.57-.45-2.14-1.09-3.52-3.03-4.14-5.82-.61-2.74-.18-5.09,1.28-7.02,1.46-1.94,3.98-3.31,7.56-4.1l9.47-2.11,3.87,17.39-9.47,2.11Z"/>
    <polygon class="b" points="691.97 784.19 674.12 829.57 682.42 829.26 696.19 794.29 712.28 828.18 721.28 827.86 700.14 783.9 691.97 784.19"/>
    <rect class="b" x="640.65" y="801.29" width="44.7" height="8.3" transform="translate(-199.98 1391.58) rotate(-84.73)"/>
    <path class="b" d="M645.45,786.87c-1.63-2.49-3.75-4.61-6.34-6.36-2.59-1.75-5.55-3-8.87-3.76-3.61-.82-7.03-.95-10.26-.38-3.23.57-6.13,1.81-8.71,3.71l4.09,6.17c1.98-1.38,4.04-2.28,6.18-2.68,2.14-.41,4.36-.35,6.64.17,2.28.52,4.28,1.37,6,2.55,1.72,1.18,3.11,2.61,4.19,4.3,1.08,1.69,1.79,3.55,2.13,5.6.34,2.04.26,4.19-.26,6.43-.51,2.24-1.36,4.21-2.56,5.9-1.19,1.69-2.64,3.06-4.35,4.12-1.7,1.05-3.58,1.73-5.64,2.05-2.06.32-4.23.21-6.51-.31-2.28-.52-4.3-1.43-6.06-2.73-1.76-1.3-3.23-2.97-4.41-5.04l-6.35,3.72c1.48,2.87,3.56,5.26,6.22,7.15,2.67,1.9,5.78,3.25,9.35,4.07,3.36.77,6.58.92,9.65.47,3.08-.45,5.9-1.45,8.47-2.97,2.58-1.53,4.76-3.53,6.55-6,1.79-2.47,3.05-5.33,3.79-8.57.74-3.24.84-6.36.31-9.36-.54-3.01-1.62-5.75-3.26-8.24Z"/>
    <polygon class="b" points="576.21 757.92 573.49 764.32 596.71 774.18 591.89 785.52 572.03 777.09 569.35 783.38 589.22 791.81 584.68 802.51 562.28 793 559.57 799.41 589.6 812.16 607.07 771.02 576.21 757.92"/>
    <path class="b" d="M545.62,749.68c1.04-.37,2.31-.39,3.81-.05,1.5.34,3.24,1.14,5.22,2.39,2.34,1.48,4.37,3.32,6.11,5.52,1.73,2.2,2.98,4.37,3.74,6.51l5.87-3.92c-.74-2.33-2.2-4.77-4.36-7.32-2.17-2.55-4.72-4.76-7.68-6.62-3.45-2.18-6.64-3.48-9.56-3.88-2.91-.41-5.46-.1-7.64.92-2.18,1.02-3.9,2.53-5.18,4.55-1.25,1.98-1.88,3.87-1.88,5.68,0,1.81.41,3.5,1.24,5.09.84,1.59,1.91,3.12,3.22,4.6,1.31,1.48,2.65,2.92,4.03,4.32,1.38,1.4,2.6,2.71,3.67,3.94s1.78,2.44,2.15,3.66c.37,1.21.19,2.4-.54,3.55-.62.97-1.44,1.66-2.47,2.07-1.04.4-2.3.46-3.81.17-1.5-.3-3.22-1.05-5.17-2.28-1.66-1.05-3.23-2.38-4.72-4-1.49-1.62-2.77-3.47-3.82-5.55l-5.66,4.05c.97,2.13,2.4,4.18,4.26,6.17,1.87,1.98,3.94,3.69,6.2,5.12,3.46,2.18,6.64,3.47,9.53,3.86,2.9.39,5.44.08,7.61-.93,2.18-1.02,3.91-2.55,5.21-4.6,1.27-2.02,1.9-3.93,1.89-5.75,0-1.82-.43-3.53-1.25-5.13-.83-1.6-1.89-3.15-3.18-4.65-1.29-1.5-2.63-2.93-4-4.3-1.37-1.37-2.59-2.68-3.64-3.92-1.05-1.24-1.77-2.48-2.15-3.7-.38-1.23-.21-2.41.51-3.57.59-.94,1.41-1.59,2.45-1.97Z"/>
  </g>
</svg>