<?xml version="1.0" encoding="UTF-8"?>
<svg id="a" data-name="Layer 1" xmlns="http://www.w3.org/2000/svg" width="1164.26" height="1082.96" viewBox="0 0 1164.26 1082.96">
  <defs>
    <style>
      .b {
        fill: #22304b;
      }

      .c {
        fill: #b79586;
      }
    </style>
  </defs>
  <g>
    <path class="b" d="M804.63,603.63c-70.53,0-96.03-20.66-96.03-20.66v48.05c42.34,12.4,76.97,13.24,90.22,13h33.9v-40.38h-28.1Z"/>
    <path class="b" d="M755.62,519.22s1.6.44,5.49.44-.67,2.13-.67,2.13l-5.42-.58.6-1.99Z"/>
    <path class="b" d="M765.85,477.71c.09,0,.18-.03.26-.03h66.63v-40.16h-61.99c-33.98,0-61.56,27.33-62.01,61.2.27,14.71,5.51,29.31,14.53,40.74,11.38,13.53,28.43,22.13,47.49,22.13v.06h61.99v-41.98h-68.45c-.7,0-1.41-.18-2.14-.44-9.53-1.98-16.7-10.43-16.7-20.55,0-11.39,9.08-20.65,20.4-20.96Z"/>
    <path class="b" d="M700.41,580.75c-.02-.67-.04-1.33-.07-1.98-1.33-25.48-18.29-46.79-41.47-54.6,2.05-6.38,3.19-13.17,3.19-20.24,0-12.98-3.74-25.09-10.18-35.32,0,0,0,0,0,0,0,0,0,0,0,0-.73-1.15-1.49-2.28-2.28-3.38-.02-.02-.03-.05-.05-.07-2.37-3.3-5.04-6.36-7.97-9.17-.09-.09-.18-.17-.27-.26-.94-.89-1.91-1.76-2.9-2.6h-.01c-2.04-1.73-4.19-3.32-6.43-4.79-.16-.11-.33-.21-.49-.32-.95-.61-1.91-1.19-2.88-1.75-.19-.11-.38-.22-.57-.33-2.27-1.27-4.63-2.42-7.05-3.42-.24-.1-.48-.19-.72-.28-.96-.38-1.92-.74-2.9-1.08-.33-.12-.67-.23-1-.34-.99-.32-1.99-.62-3-.9-.25-.07-.5-.15-.76-.21-1.26-.33-2.53-.63-3.81-.88-.24-.05-.49-.08-.73-.13-1.03-.2-2.08-.37-3.13-.52-.41-.06-.83-.11-1.24-.16-.94-.11-1.88-.21-2.84-.28-.4-.03-.8-.07-1.2-.09-1.32-.08-2.66-.13-4-.13h-101.67v104.05l-84.67-84.04c-12.91-12.82-30.37-20.01-48.56-20.01h-29.24l166.09,167.05c23.36,20.91,55.12,36.6,86.76,39.19,22.74,1.86,50.43,3.67,73.23-3.42l2.06-.74c.14-.05.27-.1.41-.15l.59-.21h0c23.12-8.6,39.62-30.8,39.78-56.87,0-.2,0-.41,0-.61,0-.34-.01-.67-.02-1.01ZM650.06,599.99c-8.35,5.41-43.34,4.5-54.84,3.72-21.76-1.48-44.33-8.8-61.08-22.89v-100.4l2.74-2.74h65.71c.13,0,.28.04.42.05.33-.02.65-.05.98-.05,11.59,0,20.99,9.4,20.99,20.99s-9.01,20.56-20.26,20.95c-.1,0-.2.04-.31.04h-64.8c8.74,25.8,31.41,39.5,57.73,41.75,16.46,1.41,51.33-5.64,59.85,9.51,6.01,10.69,2.93,22.53-7.14,29.06Z"/>
    <path class="c" d="M373.03,557.21c-.07-18.19-7.33-35.61-20.19-48.47l-20.68-20.68h0s0,0,0,0h0s-.65,115.52-.65,115.52l41.85,41.85-.34-88.23Z"/>
  </g>
  <g>
    <path class="c" d="M548.51,949.6c-.55,13.75,4.35,27.17,13.65,37.32l14.95,16.33h0s0,0,0,0h0s4.34-87.33,4.34-87.33l-30.25-33.04-2.69,66.72Z"/>
    <path class="c" d="M492.04,940.95c-2.46,13.54.53,27.51,8.32,38.86l12.53,18.25h0s0,0,0,0h0s16.46-85.87,16.46-85.87l-25.36-36.93-11.95,65.7Z"/>
    <path class="c" d="M437.32,924.52c-4.32,13.07-3.31,27.32,2.83,39.64l9.87,19.81h0s0,0,0,0h0s28.25-82.75,28.25-82.75l-19.97-40.1-20.97,63.39Z"/>
    <path class="c" d="M385.42,900.64c-6.1,12.34-7.08,26.59-2.71,39.65l7.01,20.99h0s0,0,0,0h0s39.49-78.01,39.49-78.01l-14.19-42.49-29.59,59.86Z"/>
    <path class="c" d="M337.35,869.77c-7.76,11.37-10.71,25.35-8.21,38.88l4.02,21.77h0s0,0,0,0h0s49.96-71.76,49.96-71.76l-8.14-44.05-37.63,55.16Z"/>
    <path class="c" d="M294.05,832.51c-9.27,10.18-14.13,23.61-13.54,37.36l.95,22.11h0s0,0,0,0h0s59.46-64.1,59.46-64.1l-1.93-44.76-44.94,49.38Z"/>
    <path class="c" d="M256.35,789.58c-10.59,8.79-17.28,21.41-18.61,35.12l-2.13,22.03h0s0,0,0,0h0s67.8-55.2,67.8-55.2l4.32-44.59-51.38,42.65Z"/>
    <path class="c" d="M224.99,741.83c-11.71,7.23-20.09,18.8-23.31,32.18l-5.18,21.52h0s0,0,0,0h0s74.83-45.23,74.83-45.23l10.48-43.55-56.82,35.08Z"/>
    <path class="c" d="M200.58,690.17c-12.61,5.53-22.51,15.82-27.56,28.63l-8.12,20.59h0s0,0,0,0h0s80.39-34.38,80.39-34.38l16.44-41.67-61.15,26.83Z"/>
    <path class="c" d="M183.6,635.63c-13.25,3.72-24.5,12.53-31.28,24.51l-10.91,19.26h0s0,0,0,0h0s84.39-22.85,84.39-22.85l22.08-38.98-64.28,18.06Z"/>
    <path class="c" d="M174.37,579.25c-13.64,1.84-26,9-34.39,19.92l-13.48,17.55h0s0,0,0,0h0s86.75-10.89,86.75-10.89l27.29-35.53-66.17,8.94Z"/>
    <path class="c" d="M173.09,522.13c-13.77-.07-27,5.3-36.82,14.94l-15.79,15.51h0s0,0,0,0h0s87.42,1.29,87.42,1.29l31.97-31.38-66.77-.36Z"/>
    <path class="c" d="M179.76,465.39c-13.62-1.99-27.48,1.49-38.55,9.67l-17.8,13.16h0s0,0,0,0h0s86.39,13.45,86.39,13.45l36.02-26.63-66.07-9.65Z"/>
    <path class="c" d="M194.26,410.13c-13.21-3.86-27.42-2.35-39.52,4.21l-19.46,10.55h0s0,0,0,0h0s83.68,25.34,83.68,25.34l39.38-21.36-64.09-18.75Z"/>
    <path class="c" d="M216.32,357.43c-12.55-5.67-26.82-6.14-39.72-1.33l-20.74,7.74h0s0,0,0,0h0s79.34,36.74,79.34,36.74l41.97-15.67-60.85-27.48Z"/>
    <path class="c" d="M245.49,308.31c-11.63-7.36-25.71-9.82-39.15-6.84l-21.61,4.78h0s0,0,0,0h0s73.45,47.43,73.45,47.43l43.74-9.67-56.44-35.69Z"/>
    <path class="c" d="M281.22,263.73c-10.5-8.9-24.09-13.3-37.81-12.23l-22.07,1.73h0s0,0,0,0h0s66.14,57.19,66.14,57.19l44.66-3.49-50.92-43.19Z"/>
    <path class="c" d="M322.8,224.55c-9.16-10.28-22-16.52-35.74-17.37l-22.09-1.36h0s0,0,0,0h0s57.54,65.84,57.54,65.84l44.71,2.76-44.41-49.86Z"/>
    <path class="c" d="M369.44,191.55c-7.64-11.45-19.49-19.42-32.98-22.17l-21.69-4.42h0s0,0,0,0h0s47.81,73.2,47.81,73.2l43.89,8.95-37.04-55.56Z"/>
    <path class="c" d="M420.21,165.35c-5.97-12.4-16.6-21.95-29.57-26.55l-20.86-7.4h0s0,0,0,0h0s37.16,79.14,37.16,79.14l42.22,14.97-28.95-60.17Z"/>
    <path class="c" d="M474.13,146.48c-4.18-13.11-13.38-24.04-25.59-30.41l-19.63-10.23h0s0,0,0,0h0s25.79,83.55,25.79,83.55l39.73,20.7-20.29-63.61Z"/>
    <path class="c" d="M530.15,135.29c-2.32-13.57-9.91-25.67-21.11-33.67l-18.01-12.86h0s0,0,0,0h0s13.91,86.32,13.91,86.32l36.46,26.03-11.24-65.82Z"/>
    <path class="c" d="M587.19,132.01c-.41-13.76-6.24-26.8-16.22-36.28l-16.05-15.24h0s0,0,0,0h0s1.76,87.42,1.76,87.42l32.48,30.85-1.97-66.74Z"/>
    <path class="c" d="M644.13,136.7c1.51-13.68-2.45-27.41-11.01-38.18l-13.77-17.33h0s0,0,0,0h0s-10.43,86.81-10.43,86.81l27.87,35.07,7.33-66.37Z"/>
    <path class="c" d="M699.86,149.27c3.4-13.34,1.39-27.48-5.59-39.35l-11.22-19.08h0s0,0,0,0h0s-22.41,84.52-22.41,84.52l22.72,38.61,16.5-64.7Z"/>
    <path class="c" d="M753.3,169.47c5.22-12.74,5.2-27.02-.06-39.74l-8.46-20.45h0s0,0,0,0h0s-33.95,80.57-33.95,80.57l17.12,41.4,25.34-61.78Z"/>
    <path class="c" d="M803.41,196.91c6.95-11.88,8.91-26.03,5.47-39.36l-5.53-21.43h0s0,0,0,0h0s-44.83,75.07-44.83,75.07l11.2,43.38,33.7-57.65Z"/>
    <path class="c" d="M849.21,231.06c8.53-10.8,12.45-24.54,10.9-38.22l-2.49-21.99h0s0,0,0,0h0s-54.84,68.1-54.84,68.1l5.05,44.51,41.39-52.4Z"/>
    <path class="c" d="M889.81,271.25c9.95-9.51,15.74-22.57,16.11-36.33l.59-22.13h0s0,0,0,0h0s-63.79,59.8-63.79,59.8l-1.19,44.78,48.28-46.13Z"/>
    <path class="c" d="M924.42,316.7c11.18-8.03,18.73-20.16,21.01-33.73l3.66-21.83h0s0,0,0,0h0s-71.49,50.34-71.49,50.34l-7.42,44.18,54.23-38.96Z"/>
    <path class="c" d="M952.37,366.53c12.19-6.4,21.35-17.35,25.5-30.48l6.67-21.11h0s0,0,0,0h0s-77.8,39.9-77.8,39.9l-13.49,42.72,59.12-31.03Z"/>
    <path class="c" d="M973.12,419.76c12.96-4.64,23.56-14.21,29.49-26.63l9.54-19.97h0s0,0,0,0h0s-82.59,28.69-82.59,28.69l-19.31,40.42,62.87-22.5Z"/>
    <path class="c" d="M986.25,475.36c13.48-2.79,25.31-10.79,32.91-22.27l12.23-18.45h0s0,0,0,0h0s-85.78,16.91-85.78,16.91l-24.74,37.34,65.39-13.53Z"/>
    <path class="c" d="M991.52,532.25c13.74-.89,26.57-7.17,35.69-17.47l14.67-16.57h0s0,0,0,0h0s-87.3,4.81-87.3,4.81l-29.7,33.54,66.64-4.3Z"/>
    <path class="c" d="M988.82,589.31c13.73,1.03,27.31-3.4,37.78-12.34l16.84-14.37h0s0,0,0,0h0s-87.12-7.39-87.12-7.39l-34.08,29.08,66.59,5.01Z"/>
    <path class="c" d="M978.21,645.45c13.45,2.93,27.51.43,39.13-6.96l18.67-11.88h0s0,0,0,0h0s-85.24-19.44-85.24-19.44l-37.79,24.05,65.24,14.23Z"/>
    <path class="c" d="M959.88,699.56c12.91,4.78,27.19,4.26,39.71-1.44l20.15-9.17h0s0,0,0,0h0s-81.71-31.12-81.71-31.12l-40.77,18.56,62.62,23.17Z"/>
    <path class="c" d="M934.21,750.6c12.12,6.53,26.33,8,39.53,4.1l21.23-6.28h0s0,0,0,0h0s-76.58-42.19-76.58-42.19l-42.96,12.7,58.79,31.66Z"/>
    <path class="c" d="M901.68,797.56c11.09,8.15,24.96,11.59,38.57,9.56l21.89-3.26h0s0,0,0,0h0s-69.97-52.43-69.97-52.43l-44.31,6.6,53.81,39.54Z"/>
    <path class="c" d="M862.93,839.54c9.85,9.62,23.1,14.95,36.87,14.83l22.13-.18h0s0,0,0,0h0s-61.99-61.66-61.99-61.66l-44.8.37,47.78,46.64Z"/>
    <path class="c" d="M818.71,875.72c8.42,10.89,20.8,18.02,34.44,19.82l21.94,2.9h0s0,0,0,0h0s-52.8-69.69-52.8-69.69l-44.41-5.87,40.83,52.84Z"/>
    <path class="c" d="M769.89,905.39c6.82,11.96,18.09,20.74,31.35,24.42l21.33,5.93h0s0,0,0,0h0s-42.59-76.36-42.59-76.36l-43.16-11.99,33.08,58.01Z"/>
    <path class="c" d="M717.42,927.98c5.09,12.79,15.03,23.05,27.65,28.55l20.29,8.84h0s0,0,0,0h0s-31.55-81.54-31.55-81.54l-41.07-17.88,24.68,62.04Z"/>
    <path class="c" d="M662.31,943.05c3.26,13.37,11.67,24.92,23.41,32.12l18.87,11.57h0s0,0,0,0h0s-19.89-85.14-19.89-85.14l-38.18-23.43,15.81,64.88Z"/>
    <path class="c" d="M605.64,950.3c1.37,13.7,8.09,26.3,18.71,35.06l17.07,14.09h0s0,0,0,0h0s-7.85-87.08-7.85-87.08l-34.55-28.51,6.62,66.44Z"/>
  </g>
</svg>