<?xml version="1.0" encoding="UTF-8"?>
<svg id="a" data-name="Layer 1" xmlns="http://www.w3.org/2000/svg" width="2132.43" height="1078.87" viewBox="0 0 2132.43 1078.87">
  <defs>
    <style>
      .b {
        fill: #f2e9e4;
      }

      .c {
        fill: #b79586;
      }
    </style>
  </defs>
  <g>
    <path class="b" d="M1062.04,585.57c-142.95,0-194.62-41.88-194.62-41.88v97.38c85.81,25.14,156,26.83,182.86,26.34h68.72v-81.84h-56.95Z"/>
    <path d="M962.7,414.49s3.24.9,11.12.9-1.36,4.31-1.36,4.31l-10.98-1.18,1.21-4.03Z"/>
    <path class="b" d="M983.43,330.36c.17,0,.36-.06.53-.06h135.04v-81.39h-125.64c-68.87,0-124.77,55.38-125.68,124.03.54,29.82,11.16,59.4,29.44,82.56,23.06,27.42,57.61,44.86,96.24,44.86v.12h125.64v-85.09h-138.74c-1.41,0-2.87-.36-4.34-.9-19.32-4.02-33.84-21.13-33.84-41.65,0-23.09,18.41-41.85,41.35-42.49Z"/>
    <path class="b" d="M850.82,539.2c-.03-1.36-.07-2.7-.14-4.01-2.69-51.65-37.07-94.83-84.05-110.67,4.15-12.94,6.46-26.7,6.46-41.02,0-26.31-7.58-50.84-20.63-71.58,0,0,0,0,0,0,0,0,0,0,0,0-1.47-2.33-3.01-4.62-4.62-6.85-.04-.05-.07-.1-.1-.15-4.81-6.68-10.22-12.89-16.15-18.58-.18-.18-.37-.35-.55-.52-1.91-1.81-3.87-3.57-5.88-5.27l-.02-.02c-4.14-3.48-8.49-6.72-13.03-9.69-.33-.22-.67-.43-1-.64-1.92-1.23-3.86-2.41-5.85-3.55-.39-.22-.77-.45-1.16-.67-4.61-2.58-9.38-4.9-14.3-6.93-.48-.2-.98-.38-1.46-.58-1.94-.77-3.9-1.5-5.88-2.19-.68-.23-1.35-.46-2.03-.69-2.01-.66-4.03-1.27-6.08-1.83-.51-.14-1.02-.3-1.53-.44-2.55-.67-5.12-1.27-7.72-1.79-.49-.1-.99-.17-1.48-.26-2.1-.4-4.21-.75-6.34-1.04-.83-.12-1.67-.22-2.51-.32-1.9-.23-3.82-.42-5.75-.57-.81-.06-1.61-.14-2.43-.18-2.68-.16-5.38-.27-8.11-.27h-206.05v210.88l-171.59-170.33c-26.17-25.97-61.54-40.55-98.41-40.55h-59.26l336.61,338.57c47.35,42.39,111.71,74.17,175.84,79.43,46.09,3.78,102.21,7.45,148.41-6.93l4.18-1.5c.28-.1.55-.2.83-.3l1.2-.43v-.02c46.84-17.42,80.29-62.4,80.6-115.25,0-.41.01-.83,0-1.23,0-.69-.03-1.36-.04-2.05ZM748.77,578.19c-16.92,10.96-87.85,9.13-111.16,7.54-44.09-3.01-89.84-17.84-123.79-46.4v-203.48l5.55-5.55h133.19c.27,0,.57.07.85.1.66-.03,1.31-.1,1.98-.1,23.5,0,42.55,19.05,42.55,42.55s-18.25,41.68-41.05,42.47c-.21.01-.41.08-.63.08h-131.34c17.72,52.29,63.67,80.05,117.01,84.62,33.36,2.86,104.03-11.44,121.31,19.28,12.18,21.66,5.94,45.67-14.48,58.9Z"/>
    <path class="c" d="M187.31,491.5c-.14-36.86-14.85-72.17-40.91-98.24l-41.91-41.91h0s0,0,0,0h0s-1.31,234.13-1.31,234.13l84.83,84.83-.69-178.81Z"/>
  </g>
  <g>
    <polygon class="c" points="1268.52 295.79 1234.08 254.58 1208.96 254.58 1208.96 345.22 1238.74 345.22 1238.74 304 1273.18 345.22 1298.3 345.22 1298.3 254.58 1268.52 254.58 1268.52 295.79"/>
    <path class="c" d="M1343.36,333.89c4.57,4.27,9.99,7.58,16.25,9.91,6.26,2.33,13.1,3.49,20.52,3.49s14.11-1.16,20.33-3.49c6.21-2.33,11.61-5.63,16.19-9.91,4.57-4.27,8.13-9.3,10.68-15.08,2.55-5.78,3.82-12.09,3.82-18.91s-1.28-13.23-3.82-18.97c-2.55-5.74-6.11-10.74-10.68-15.02-4.58-4.27-9.97-7.58-16.19-9.91-6.22-2.33-13.04-3.49-20.46-3.49s-14.14,1.16-20.39,3.49c-6.26,2.33-11.68,5.63-16.25,9.91-4.58,4.27-8.14,9.28-10.68,15.02-2.55,5.74-3.82,12.07-3.82,18.97s1.27,13.12,3.82,18.91c2.55,5.78,6.11,10.81,10.68,15.08ZM1361.23,290.38c1.04-2.8,2.48-5.18,4.34-7.12,1.86-1.94,4.01-3.43,6.47-4.47,2.46-1.04,5.11-1.55,7.96-1.55s5.5.52,7.96,1.55c2.46,1.04,4.62,2.53,6.47,4.47,1.86,1.94,3.3,4.32,4.34,7.12,1.04,2.8,1.55,5.98,1.55,9.52s-.52,6.71-1.55,9.52c-1.04,2.81-2.48,5.18-4.34,7.12-1.86,1.94-4.01,3.43-6.47,4.47-2.46,1.04-5.12,1.55-7.96,1.55s-5.5-.52-7.96-1.55c-2.46-1.04-4.62-2.53-6.47-4.47-1.86-1.94-3.3-4.31-4.34-7.12-1.04-2.8-1.55-5.98-1.55-9.52s.52-6.71,1.55-9.52Z"/>
    <path class="c" d="M1492.27,322.43h8.32l15.37,22.79h32.63l-19.07-27.94c5.07-2.6,9.14-6.05,12.07-10.45,3.37-5.05,5.05-11.07,5.05-18.06s-1.68-13.06-5.05-18.19c-3.37-5.13-8.14-9.08-14.31-11.85-6.17-2.76-13.49-4.14-21.95-4.14h-43.64v90.64h30.56v-22.79ZM1512.8,280.99c2.03,1.9,3.04,4.49,3.04,7.77s-1.02,5.87-3.04,7.77c-2.03,1.9-5.16,2.85-9.39,2.85h-11.14v-21.24h11.14c4.23,0,7.36.95,9.39,2.85Z"/>
    <polygon class="c" points="1595.99 345.22 1626.55 345.22 1626.55 278.27 1653.09 278.27 1653.09 254.58 1569.45 254.58 1569.45 278.27 1595.99 278.27 1595.99 345.22"/>
    <polygon class="c" points="1769.76 345.22 1769.76 254.58 1739.2 254.58 1739.2 286.69 1710.97 286.69 1710.97 254.58 1680.42 254.58 1680.42 345.22 1710.97 345.22 1710.97 311.81 1739.2 311.81 1739.2 345.22 1769.76 345.22"/>
    <path class="b" d="M1249.94,485.07c-1.68.39-3.99.58-6.93.58-5.01,0-10.16-.76-15.47-2.27-5.31-1.51-10.12-3.52-14.44-6.02l-9.84,22.27c4.57,2.76,10.4,5.01,17.48,6.73,7.08,1.72,14.42,2.59,22.01,2.59,9.41,0,17.22-1.4,23.44-4.21,6.22-2.81,10.9-6.52,14.05-11.14,3.15-4.62,4.73-9.69,4.73-15.21,0-4.75-.91-8.72-2.72-11.91-1.81-3.19-4.21-5.78-7.19-7.77-2.98-1.99-6.24-3.58-9.77-4.79-3.54-1.21-7.1-2.16-10.68-2.85-3.58-.69-6.86-1.34-9.84-1.94-2.98-.6-5.37-1.36-7.19-2.27-1.81-.91-2.72-2.14-2.72-3.69,0-1.04.36-1.99,1.1-2.85.73-.86,1.96-1.55,3.69-2.07,1.73-.52,4.06-.78,6.99-.78,3.97,0,8.05.56,12.24,1.68,4.19,1.12,8.52,2.8,13.01,5.05l9.19-22.14c-4.75-2.68-10.1-4.66-16.06-5.96-5.96-1.29-12-1.94-18.13-1.94-9.32,0-17.11,1.38-23.37,4.14-6.26,2.76-10.97,6.46-14.11,11.07-3.15,4.62-4.73,9.73-4.73,15.34,0,4.83.91,8.87,2.72,12.11,1.81,3.24,4.21,5.85,7.19,7.83,2.98,1.99,6.26,3.58,9.84,4.79,3.58,1.21,7.14,2.18,10.68,2.92,3.54.73,6.8,1.42,9.78,2.07,2.98.65,5.37,1.45,7.19,2.4,1.81.95,2.72,2.25,2.72,3.88,0,1.04-.39,1.92-1.17,2.66-.78.73-2.01,1.29-3.69,1.68Z"/>
    <polygon class="b" points="1331.84 506.89 1362.4 506.89 1362.4 439.95 1388.94 439.95 1388.94 416.25 1305.29 416.25 1305.29 439.95 1331.84 439.95 1331.84 506.89"/>
    <path class="b" d="M1473.51,491.1l6.07,15.8h31.59l-39.62-90.64h-30.04l-39.62,90.64h31.08l6.07-15.8h34.47ZM1447.5,469.08l8.78-22.83,8.78,22.83h-17.55Z"/>
    <path class="b" d="M1603.34,478.95c5.07-2.6,9.14-6.05,12.07-10.45,3.37-5.05,5.05-11.07,5.05-18.06s-1.68-13.06-5.05-18.19c-3.37-5.13-8.14-9.08-14.31-11.85-6.17-2.76-13.49-4.14-21.95-4.14h-43.64v90.64h30.56v-22.79h8.32l15.37,22.79h32.63l-19.07-27.94ZM1586.6,442.66c2.03,1.9,3.04,4.49,3.04,7.77s-1.02,5.87-3.04,7.77c-2.03,1.9-5.16,2.85-9.39,2.85h-11.14v-21.24h11.14c4.23,0,7.36.95,9.39,2.85Z"/>
    <path class="b" d="M1282.18,621.43c-.24-.09-.5-.15-.74-.24,3.7-1.93,6.65-4.36,8.77-7.33,2.55-3.58,3.82-7.66,3.82-12.24,0-6.91-2.98-12.58-8.93-17.03-5.96-4.45-15.2-6.67-27.71-6.67h-48.43v90.64h51.02c12.52,0,22.03-2.2,28.55-6.6,6.52-4.4,9.78-10.53,9.78-18.39,0-5.26-1.4-9.78-4.21-13.53-2.81-3.76-6.78-6.63-11.91-8.61ZM1253.24,599.29c3.45,0,5.98.56,7.58,1.68,1.6,1.12,2.4,2.8,2.4,5.05s-.8,3.82-2.4,4.99c-1.6,1.17-4.12,1.75-7.58,1.75h-14.24v-13.47h14.24ZM1264.96,645.38c-1.68,1.21-4.21,1.81-7.57,1.81h-18.39v-14.24h18.39c3.37,0,5.89.6,7.57,1.81,1.68,1.21,2.53,2.98,2.53,5.31s-.84,4.1-2.53,5.31Z"/>
    <path class="b" d="M1385.96,626.87c0,6.9-1.23,11.8-3.69,14.69-2.46,2.89-5.85,4.34-10.16,4.34s-7.6-1.45-10.1-4.34c-2.51-2.89-3.76-7.79-3.76-14.69v-48.95h-30.56v49.85c0,13.56,3.88,24.09,11.65,31.59,7.77,7.51,18.6,11.27,32.5,11.27s24.73-3.75,32.5-11.27c7.77-7.51,11.65-18.04,11.65-31.59v-49.85h-30.04v48.95Z"/>
    <path class="b" d="M1515.51,620.39c-2.98-1.99-6.24-3.58-9.77-4.79-3.54-1.21-7.1-2.16-10.68-2.85-3.58-.69-6.86-1.34-9.84-1.94-2.98-.6-5.37-1.36-7.19-2.27-1.81-.91-2.72-2.14-2.72-3.69,0-1.04.36-1.99,1.1-2.85.73-.86,1.96-1.55,3.69-2.07,1.73-.52,4.06-.78,6.99-.78,3.97,0,8.05.56,12.24,1.68,4.19,1.12,8.52,2.8,13.01,5.05l9.19-22.14c-4.75-2.68-10.1-4.66-16.06-5.96-5.96-1.29-12-1.94-18.13-1.94-9.32,0-17.11,1.38-23.37,4.14-6.26,2.76-10.97,6.46-14.11,11.07-3.15,4.62-4.73,9.73-4.73,15.34,0,4.83.91,8.87,2.72,12.11,1.81,3.24,4.21,5.85,7.19,7.83,2.98,1.99,6.26,3.58,9.84,4.79,3.58,1.21,7.14,2.18,10.68,2.92,3.54.73,6.8,1.42,9.78,2.07,2.98.65,5.37,1.45,7.19,2.4,1.81.95,2.72,2.25,2.72,3.88,0,1.04-.39,1.92-1.17,2.66-.78.73-2.01,1.29-3.69,1.68-1.68.39-3.99.58-6.93.58-5.01,0-10.16-.76-15.47-2.27-5.31-1.51-10.12-3.52-14.44-6.02l-9.84,22.27c4.57,2.76,10.4,5.01,17.48,6.73,7.08,1.72,14.42,2.59,22.01,2.59,9.41,0,17.22-1.4,23.44-4.21,6.22-2.81,10.9-6.52,14.05-11.14,3.15-4.62,4.73-9.69,4.73-15.21,0-4.75-.91-8.72-2.72-11.91-1.81-3.19-4.21-5.78-7.19-7.77Z"/>
    <rect class="b" x="1553.91" y="577.92" width="30.56" height="90.64"/>
    <polygon class="b" points="1678.22 619.14 1643.77 577.92 1618.65 577.92 1618.65 668.56 1648.43 668.56 1648.43 627.34 1682.88 668.56 1708 668.56 1708 577.92 1678.22 577.92 1678.22 619.14"/>
    <polygon class="b" points="1772.22 633.6 1810.55 633.6 1810.55 611.59 1772.22 611.59 1772.22 600.97 1815.86 600.97 1815.86 577.92 1742.18 577.92 1742.18 668.56 1817.54 668.56 1817.54 645.51 1772.22 645.51 1772.22 633.6"/>
    <path class="b" d="M1914.85,620.39c-2.98-1.99-6.24-3.58-9.77-4.79-3.54-1.21-7.1-2.16-10.68-2.85-3.58-.69-6.86-1.34-9.84-1.94-2.98-.6-5.37-1.36-7.19-2.27-1.81-.91-2.72-2.14-2.72-3.69,0-1.04.36-1.99,1.1-2.85.73-.86,1.96-1.55,3.69-2.07,1.73-.52,4.06-.78,6.99-.78,3.97,0,8.05.56,12.24,1.68,4.19,1.12,8.52,2.8,13.01,5.05l9.19-22.14c-4.75-2.68-10.1-4.66-16.06-5.96-5.96-1.29-12-1.94-18.13-1.94-9.32,0-17.11,1.38-23.37,4.14-6.26,2.76-10.97,6.46-14.11,11.07-3.15,4.62-4.73,9.73-4.73,15.34,0,4.83.91,8.87,2.72,12.11,1.81,3.24,4.21,5.85,7.19,7.83,2.98,1.99,6.26,3.58,9.84,4.79,3.58,1.21,7.14,2.18,10.68,2.92,3.54.73,6.8,1.42,9.78,2.07,2.98.65,5.37,1.45,7.19,2.4,1.81.95,2.72,2.25,2.72,3.88,0,1.04-.39,1.92-1.17,2.66-.78.73-2.01,1.29-3.69,1.68-1.68.39-3.99.58-6.93.58-5.01,0-10.16-.76-15.47-2.27-5.31-1.51-10.12-3.52-14.44-6.02l-9.84,22.27c4.57,2.76,10.4,5.01,17.48,6.73,7.08,1.72,14.42,2.59,22.01,2.59,9.41,0,17.22-1.4,23.44-4.21,6.22-2.81,10.9-6.52,14.05-11.14,3.15-4.62,4.73-9.69,4.73-15.21,0-4.75-.91-8.72-2.72-11.91-1.81-3.19-4.21-5.78-7.19-7.77Z"/>
    <path class="b" d="M2026.53,628.16c-1.81-3.19-4.21-5.78-7.19-7.77-2.98-1.99-6.24-3.58-9.77-4.79-3.54-1.21-7.1-2.16-10.68-2.85-3.58-.69-6.86-1.34-9.84-1.94-2.98-.6-5.37-1.36-7.19-2.27-1.81-.91-2.72-2.14-2.72-3.69,0-1.04.36-1.99,1.1-2.85.73-.86,1.96-1.55,3.69-2.07,1.73-.52,4.06-.78,6.99-.78,3.97,0,8.05.56,12.24,1.68,4.19,1.12,8.52,2.8,13.01,5.05l9.19-22.14c-4.75-2.68-10.1-4.66-16.06-5.96-5.96-1.29-12-1.94-18.13-1.94-9.32,0-17.11,1.38-23.37,4.14-6.26,2.76-10.97,6.46-14.11,11.07-3.15,4.62-4.73,9.73-4.73,15.34,0,4.83.91,8.87,2.72,12.11,1.81,3.24,4.21,5.85,7.19,7.83,2.98,1.99,6.26,3.58,9.84,4.79,3.58,1.21,7.14,2.18,10.68,2.92,3.54.73,6.8,1.42,9.78,2.07,2.98.65,5.37,1.45,7.19,2.4,1.81.95,2.72,2.25,2.72,3.88,0,1.04-.39,1.92-1.17,2.66-.78.73-2.01,1.29-3.69,1.68-1.68.39-3.99.58-6.93.58-5.01,0-10.16-.76-15.47-2.27-5.31-1.51-10.12-3.52-14.44-6.02l-9.84,22.27c4.57,2.76,10.4,5.01,17.48,6.73,7.08,1.72,14.42,2.59,22.01,2.59,9.41,0,17.22-1.4,23.44-4.21,6.22-2.81,10.9-6.52,14.05-11.14,3.15-4.62,4.73-9.69,4.73-15.21,0-4.75-.91-8.72-2.72-11.91Z"/>
  </g>
  <g>
    <path class="b" d="M143.38,798.66c-2.49-1.28-5.2-2.31-8.14-3.11-2.94-.8-5.9-1.54-8.9-2.25-3-.7-5.74-1.57-8.23-2.59-2.49-1.02-4.49-2.39-5.98-4.12-1.5-1.72-2.25-4.02-2.25-6.89,0-2.49.67-4.74,2.01-6.75,1.34-2.01,3.41-3.62,6.22-4.83,2.81-1.21,6.35-1.82,10.63-1.82,3,0,6.11.46,9.33,1.39,3.22.93,6.24,2.35,9.05,4.26l1.82-3.93c-2.55-1.85-5.63-3.32-9.24-4.4-3.61-1.08-7.26-1.63-10.96-1.63-5.49,0-9.99.83-13.5,2.49-3.51,1.66-6.1,3.83-7.75,6.51-1.66,2.68-2.49,5.62-2.49,8.81,0,3.51.75,6.37,2.25,8.57,1.5,2.2,3.5,3.94,5.98,5.21,2.49,1.28,5.23,2.32,8.23,3.11,3,.8,5.97,1.55,8.9,2.25,2.93.7,5.65,1.57,8.14,2.58,2.49,1.02,4.5,2.4,6.03,4.12,1.53,1.72,2.3,4.02,2.3,6.89,0,2.43-.69,4.63-2.06,6.61-1.37,1.98-3.48,3.56-6.32,4.74-2.84,1.18-6.5,1.77-10.96,1.77s-8.7-.81-12.68-2.44c-3.99-1.63-7.13-3.62-9.43-5.98l-2.2,3.64c2.43,2.68,5.85,4.86,10.29,6.56,4.44,1.69,9.14,2.53,14.12,2.53,5.55,0,10.1-.81,13.64-2.44,3.54-1.63,6.18-3.79,7.9-6.51,1.72-2.71,2.58-5.63,2.58-8.76,0-3.45-.77-6.25-2.3-8.42-1.53-2.17-3.54-3.89-6.03-5.17Z"/>
    <polygon class="b" points="173.15 797.61 208.86 797.61 208.86 793.3 173.15 793.3 173.15 766.88 213.07 766.88 213.07 762.47 168.27 762.47 168.27 829.49 214.51 829.49 214.51 825.08 173.15 825.08 173.15 797.61"/>
    <path class="b" d="M270.8,804.83c4.02-1.82,7.12-4.4,9.28-7.75,2.17-3.35,3.26-7.36,3.26-12.01s-1.09-8.86-3.26-12.21c-2.17-3.35-5.26-5.92-9.28-7.7-4.02-1.79-8.84-2.68-14.46-2.68h-24.03v67.02h4.88v-21.92h19.15c2.29,0,4.41-.19,6.44-.49l16.06,22.42h5.55l-16.8-23.45c1.12-.34,2.19-.74,3.21-1.2ZM237.2,803.26v-36.38h19.15c7.21,0,12.68,1.58,16.42,4.74,3.73,3.16,5.6,7.65,5.6,13.45s-1.87,10.21-5.6,13.4c-3.73,3.19-9.21,4.79-16.42,4.79h-19.15Z"/>
    <polygon class="b" points="322.55 823.19 295.5 762.47 290.14 762.47 320.01 829.49 324.89 829.49 354.76 762.47 349.69 762.47 322.55 823.19"/>
    <rect class="b" x="365.58" y="762.47" width="4.88" height="67.02"/>
    <path class="b" d="M400.86,774.92c2.71-2.68,5.9-4.75,9.57-6.22,3.67-1.47,7.64-2.2,11.92-2.2,3.89,0,7.58.62,11.06,1.87,3.48,1.24,6.65,3.27,9.53,6.08l3.06-3.16c-2.94-3.13-6.46-5.46-10.58-6.99-4.12-1.53-8.54-2.3-13.26-2.3-4.98,0-9.57.85-13.79,2.54-4.21,1.69-7.9,4.07-11.06,7.13-3.16,3.06-5.6,6.65-7.32,10.77-1.72,4.12-2.58,8.64-2.58,13.55s.86,9.43,2.58,13.54c1.72,4.12,4.15,7.71,7.28,10.77,3.13,3.06,6.81,5.44,11.06,7.13,4.24,1.69,8.86,2.53,13.83,2.53,4.72,0,9.14-.78,13.26-2.34,4.12-1.57,7.64-3.91,10.58-7.04l-3.06-3.16c-2.87,2.87-6.05,4.93-9.53,6.18-3.48,1.24-7.16,1.87-11.06,1.87-4.28,0-8.25-.73-11.92-2.2-3.67-1.47-6.86-3.54-9.57-6.22-2.71-2.68-4.82-5.81-6.32-9.38-1.5-3.57-2.25-7.47-2.25-11.68s.75-8.11,2.25-11.68c1.5-3.58,3.61-6.7,6.32-9.38Z"/>
    <polygon class="b" points="467.25 797.61 502.96 797.61 502.96 793.3 467.25 793.3 467.25 766.88 507.17 766.88 507.17 762.47 462.36 762.47 462.36 829.49 508.6 829.49 508.6 825.08 467.25 825.08 467.25 797.61"/>
    <path class="b" d="M559.82,798.66c-2.49-1.28-5.2-2.31-8.14-3.11-2.94-.8-5.9-1.54-8.9-2.25-3-.7-5.74-1.57-8.23-2.59-2.49-1.02-4.49-2.39-5.98-4.12-1.5-1.72-2.25-4.02-2.25-6.89,0-2.49.67-4.74,2.01-6.75,1.34-2.01,3.41-3.62,6.22-4.83,2.81-1.21,6.35-1.82,10.63-1.82,3,0,6.11.46,9.33,1.39,3.22.93,6.24,2.35,9.05,4.26l1.82-3.93c-2.55-1.85-5.63-3.32-9.24-4.4-3.61-1.08-7.26-1.63-10.96-1.63-5.49,0-9.99.83-13.5,2.49-3.51,1.66-6.1,3.83-7.75,6.51-1.66,2.68-2.49,5.62-2.49,8.81,0,3.51.75,6.37,2.25,8.57,1.5,2.2,3.5,3.94,5.98,5.21,2.49,1.28,5.23,2.32,8.23,3.11,3,.8,5.97,1.55,8.9,2.25,2.93.7,5.65,1.57,8.14,2.58,2.49,1.02,4.5,2.4,6.03,4.12,1.53,1.72,2.3,4.02,2.3,6.89,0,2.43-.69,4.63-2.06,6.61-1.37,1.98-3.48,3.56-6.32,4.74-2.84,1.18-6.5,1.77-10.96,1.77s-8.7-.81-12.68-2.44c-3.99-1.63-7.13-3.62-9.43-5.98l-2.2,3.64c2.43,2.68,5.85,4.86,10.29,6.56,4.44,1.69,9.14,2.53,14.12,2.53,5.55,0,10.1-.81,13.64-2.44,3.54-1.63,6.18-3.79,7.9-6.51,1.72-2.71,2.58-5.63,2.58-8.76,0-3.45-.77-6.25-2.3-8.42-1.53-2.17-3.54-3.89-6.03-5.17Z"/>
    <polygon class="b" points="659 793.3 614.2 793.3 614.2 762.47 609.32 762.47 609.32 829.49 614.2 829.49 614.2 797.61 659 797.61 659 829.49 663.89 829.49 663.89 762.47 659 762.47 659 793.3"/>
    <path class="b" d="M740.57,771.66c-3.13-3.06-6.81-5.44-11.06-7.13-4.24-1.69-8.86-2.54-13.83-2.54s-9.59.85-13.83,2.54c-4.24,1.69-7.94,4.09-11.1,7.18-3.16,3.1-5.6,6.7-7.32,10.82-1.72,4.12-2.58,8.6-2.58,13.45s.86,9.33,2.58,13.45c1.72,4.12,4.17,7.72,7.32,10.82,3.16,3.1,6.86,5.49,11.1,7.18,4.24,1.69,8.86,2.53,13.83,2.53s9.59-.84,13.83-2.53c4.24-1.69,7.93-4.07,11.06-7.13,3.13-3.06,5.57-6.65,7.32-10.77,1.76-4.12,2.63-8.63,2.63-13.54s-.88-9.43-2.63-13.55c-1.76-4.12-4.2-7.7-7.32-10.77ZM743.3,807.66c-1.5,3.57-3.59,6.7-6.27,9.38-2.68,2.68-5.84,4.75-9.48,6.22-3.64,1.47-7.59,2.2-11.87,2.2s-8.23-.73-11.87-2.2-6.81-3.54-9.53-6.22c-2.71-2.68-4.82-5.81-6.32-9.38-1.5-3.57-2.25-7.47-2.25-11.68s.75-8.19,2.25-11.73c1.5-3.54,3.61-6.65,6.32-9.33,2.71-2.68,5.89-4.75,9.53-6.22s7.59-2.2,11.87-2.2,8.23.73,11.87,2.2c3.64,1.47,6.8,3.54,9.48,6.22,2.68,2.68,4.77,5.79,6.27,9.33,1.5,3.54,2.25,7.45,2.25,11.73s-.75,8.11-2.25,11.68Z"/>
    <polygon class="b" points="772.35 762.47 767.47 762.47 767.47 829.49 810.93 829.49 810.93 825.08 772.35 825.08 772.35 762.47"/>
    <path class="b" d="M868.66,766.78c-5.36-2.87-11.58-4.31-18.67-4.31h-26.52v67.02h26.52c7.08,0,13.31-1.44,18.67-4.31,5.36-2.87,9.53-6.83,12.49-11.87,2.97-5.04,4.45-10.82,4.45-17.33s-1.48-12.28-4.45-17.33c-2.97-5.04-7.13-9-12.49-11.87ZM876.89,811.06c-2.55,4.37-6.16,7.8-10.82,10.29-4.66,2.49-10.15,3.73-16.47,3.73h-21.25v-58.21h21.25c6.32,0,11.81,1.25,16.47,3.74,4.66,2.49,8.26,5.92,10.82,10.29,2.55,4.37,3.83,9.4,3.83,15.08s-1.28,10.71-3.83,15.08Z"/>
    <rect class="b" x="902.55" y="762.47" width="4.88" height="67.02"/>
    <polygon class="b" points="980.48 820.64 934.91 762.47 930.79 762.47 930.79 829.49 935.67 829.49 935.67 771.31 981.34 829.49 985.36 829.49 985.36 762.47 980.48 762.47 980.48 820.64"/>
    <path class="b" d="M1015.8,774.92c2.74-2.68,5.97-4.75,9.67-6.22,3.7-1.47,7.72-2.2,12.06-2.2,4.08,0,7.86.61,11.34,1.82,3.48,1.21,6.69,3.25,9.62,6.13l3.06-3.25c-2.94-3.06-6.48-5.36-10.63-6.89-4.15-1.53-8.65-2.3-13.5-2.3-5.11,0-9.78.85-14.02,2.54-4.24,1.69-7.96,4.07-11.15,7.13-3.19,3.06-5.65,6.65-7.37,10.77-1.72,4.12-2.58,8.64-2.58,13.55s.86,9.43,2.58,13.54c1.72,4.12,4.17,7.71,7.32,10.77,3.16,3.06,6.88,5.44,11.15,7.13,4.28,1.69,8.93,2.53,13.98,2.53,4.59,0,8.98-.72,13.16-2.15,4.18-1.44,7.77-3.59,10.77-6.46v-25.08h-4.69v23.01c-2.42,1.95-5.01,3.42-7.8,4.37-3.54,1.22-7.29,1.82-11.25,1.82-4.34,0-8.36-.73-12.06-2.2-3.7-1.47-6.93-3.54-9.67-6.22-2.75-2.68-4.87-5.81-6.37-9.38-1.5-3.57-2.25-7.47-2.25-11.68s.75-8.11,2.25-11.68c1.5-3.58,3.62-6.7,6.37-9.38Z"/>
    <path class="b" d="M1116.13,798.66c-2.49-1.28-5.2-2.31-8.14-3.11-2.94-.8-5.9-1.54-8.9-2.25-3-.7-5.74-1.57-8.23-2.59-2.49-1.02-4.49-2.39-5.98-4.12-1.5-1.72-2.25-4.02-2.25-6.89,0-2.49.67-4.74,2.01-6.75,1.34-2.01,3.41-3.62,6.22-4.83,2.81-1.21,6.35-1.82,10.63-1.82,3,0,6.11.46,9.33,1.39,3.22.93,6.24,2.35,9.05,4.26l1.82-3.93c-2.55-1.85-5.63-3.32-9.24-4.4-3.61-1.08-7.26-1.63-10.96-1.63-5.49,0-9.99.83-13.5,2.49-3.51,1.66-6.1,3.83-7.75,6.51-1.66,2.68-2.49,5.62-2.49,8.81,0,3.51.75,6.37,2.25,8.57,1.5,2.2,3.5,3.94,5.98,5.21,2.49,1.28,5.23,2.32,8.23,3.11,3,.8,5.97,1.55,8.9,2.25,2.93.7,5.65,1.57,8.14,2.58,2.49,1.02,4.5,2.4,6.03,4.12,1.53,1.72,2.3,4.02,2.3,6.89,0,2.43-.69,4.63-2.06,6.61-1.37,1.98-3.48,3.56-6.32,4.74-2.84,1.18-6.5,1.77-10.96,1.77s-8.7-.81-12.68-2.44c-3.99-1.63-7.13-3.62-9.43-5.98l-2.2,3.64c2.43,2.68,5.85,4.86,10.29,6.56,4.44,1.69,9.14,2.53,14.12,2.53,5.55,0,10.1-.81,13.64-2.44,3.54-1.63,6.18-3.79,7.9-6.51,1.72-2.71,2.58-5.63,2.58-8.76,0-3.45-.77-6.25-2.3-8.42-1.53-2.17-3.54-3.89-6.03-5.17Z"/>
    <polygon class="b" points="1170.51 762.47 1165.62 762.47 1165.62 829.49 1209.09 829.49 1209.09 825.08 1170.51 825.08 1170.51 762.47"/>
    <rect class="b" x="1221.63" y="762.47" width="4.88" height="67.02"/>
    <polygon class="b" points="1313.92 762.47 1284 814.28 1253.99 762.47 1249.87 762.47 1249.87 829.49 1254.66 829.49 1254.66 772.31 1282.71 820.59 1285.1 820.59 1313.15 772.15 1313.25 829.49 1318.03 829.49 1317.94 762.47 1313.92 762.47"/>
    <rect class="b" x="1341.39" y="762.47" width="4.88" height="67.02"/>
    <polygon class="b" points="1358.34 766.88 1382.46 766.88 1382.46 829.49 1387.34 829.49 1387.34 766.88 1411.47 766.88 1411.47 762.47 1358.34 762.47 1358.34 766.88"/>
    <polygon class="b" points="1428.41 797.61 1464.12 797.61 1464.12 793.3 1428.41 793.3 1428.41 766.88 1468.33 766.88 1468.33 762.47 1423.53 762.47 1423.53 829.49 1469.77 829.49 1469.77 825.08 1428.41 825.08 1428.41 797.61"/>
    <path class="b" d="M1532.76,766.78c-5.36-2.87-11.58-4.31-18.67-4.31h-26.52v67.02h26.52c7.08,0,13.31-1.44,18.67-4.31,5.36-2.87,9.53-6.83,12.49-11.87,2.97-5.04,4.45-10.82,4.45-17.33s-1.48-12.28-4.45-17.33c-2.97-5.04-7.13-9-12.49-11.87ZM1541,811.06c-2.55,4.37-6.16,7.8-10.82,10.29-4.66,2.49-10.15,3.73-16.47,3.73h-21.25v-58.21h21.25c6.32,0,11.81,1.25,16.47,3.74,4.66,2.49,8.26,5.92,10.82,10.29,2.55,4.37,3.83,9.4,3.83,15.08s-1.28,10.71-3.83,15.08Z"/>
    <polygon class="b" points="1596.14 762.47 1591.26 762.47 1591.26 829.49 1634.72 829.49 1634.72 825.08 1596.14 825.08 1596.14 762.47"/>
    <rect class="b" x="1647.26" y="762.47" width="4.88" height="67.02"/>
    <path class="b" d="M1695.13,762.47l-30.83,67.02h5.27l8.55-18.86h38.87l8.58,18.86h5.26l-30.83-67.02h-4.88ZM1679.99,806.51l17.53-38.66,17.59,38.66h-35.13Z"/>
    <path class="b" d="M1787.61,796.36c-1.49-.61-3.14-1.07-4.91-1.4.54-.18,1.09-.35,1.61-.56,3.03-1.25,5.41-3.11,7.13-5.6,1.72-2.49,2.58-5.55,2.58-9.19,0-5.55-2.04-9.8-6.13-12.73-4.09-2.93-9.73-4.4-16.95-4.4h-27.96v67.02h29.87c8.3,0,14.49-1.55,18.57-4.64,4.08-3.1,6.13-7.45,6.13-13.07,0-3.83-.85-7.02-2.54-9.57-1.69-2.55-4.16-4.5-7.42-5.84ZM1770.76,766.69c5.81,0,10.31,1.12,13.5,3.35,3.19,2.23,4.79,5.55,4.79,9.95s-1.6,7.82-4.79,10.05c-3.19,2.24-7.69,3.35-13.5,3.35h-22.88v-26.71h22.88ZM1787.61,821.97c-3.38,2.2-8.3,3.3-14.74,3.3h-24.99v-27.66h24.99c6.45,0,11.36,1.1,14.74,3.3,3.38,2.2,5.07,5.7,5.07,10.48s-1.69,8.38-5.07,10.58Z"/>
    <rect class="b" x="1814.98" y="762.47" width="4.88" height="67.02"/>
    <polygon class="b" points="1848.11 762.47 1843.23 762.47 1843.23 829.49 1886.69 829.49 1886.69 825.08 1848.11 825.08 1848.11 762.47"/>
    <rect class="b" x="1899.23" y="762.47" width="4.88" height="67.02"/>
    <polygon class="b" points="1916.18 766.88 1940.3 766.88 1940.3 829.49 1945.18 829.49 1945.18 766.88 1969.31 766.88 1969.31 762.47 1916.18 762.47 1916.18 766.88"/>
    <polygon class="b" points="2028.76 762.47 2023.68 762.47 1999.46 801.94 1975.24 762.47 1969.88 762.47 1996.88 806.46 1996.88 829.49 2001.76 829.49 2001.76 806.46 2028.76 762.47"/>
  </g>
</svg>