<?xml version="1.0" encoding="UTF-8"?>
<svg id="a" data-name="Layer 1" xmlns="http://www.w3.org/2000/svg" width="1080" height="1080" viewBox="0 0 1080 1080">
  <defs>
    <style>
      .b {
        fill: #22304b;
      }

      .c {
        fill: #b79586;
      }
    </style>
  </defs>
  <g>
    <path class="b" d="M971.25,568.07c-136.7,0-186.12-40.05-186.12-40.05v93.12c82.06,24.04,149.19,25.65,174.87,25.19h65.71v-78.26h-54.46Z"/>
    <path class="b" d="M876.25,404.46s3.1.86,10.64.86-1.3,4.12-1.3,4.12l-10.5-1.13,1.16-3.85Z"/>
    <path class="b" d="M896.08,324.01c.17,0,.34-.06.5-.06h129.13v-77.83h-120.15c-65.86,0-119.32,52.96-120.19,118.61.52,28.52,10.67,56.8,28.15,78.95,22.06,26.22,55.09,42.9,92.04,42.9v.11h120.15v-81.37h-132.67c-1.35,0-2.74-.34-4.15-.86-18.48-3.84-32.36-20.21-32.36-39.83,0-22.08,17.61-40.02,39.54-40.63Z"/>
    <path class="b" d="M769.26,523.73c-.03-1.3-.07-2.58-.13-3.84-2.57-49.39-35.45-90.69-80.37-105.83,3.97-12.37,6.18-25.53,6.18-39.22,0-25.16-7.25-48.62-19.73-68.46,0,0,0,0,0,0,0,0,0,0,0,0-1.41-2.23-2.88-4.42-4.41-6.55-.03-.05-.07-.09-.1-.14-4.6-6.39-9.78-12.33-15.45-17.77-.17-.17-.35-.34-.53-.5-1.83-1.73-3.7-3.41-5.62-5.04l-.02-.02c-3.96-3.33-8.12-6.42-12.46-9.27-.32-.21-.64-.41-.96-.61-1.83-1.18-3.7-2.31-5.59-3.39-.37-.21-.74-.43-1.11-.64-4.41-2.47-8.97-4.68-13.67-6.63-.46-.19-.93-.37-1.4-.55-1.85-.74-3.73-1.44-5.62-2.09-.65-.22-1.29-.44-1.94-.66-1.92-.63-3.86-1.21-5.81-1.75-.49-.14-.97-.29-1.47-.42-2.43-.64-4.9-1.22-7.38-1.71-.47-.09-.95-.16-1.42-.25-2.01-.38-4.03-.71-6.06-1-.8-.11-1.6-.21-2.4-.3-1.82-.22-3.65-.4-5.5-.54-.77-.06-1.54-.13-2.32-.18-2.57-.15-5.15-.25-7.75-.25h-197.05v201.66l-164.1-162.88c-25.02-24.84-58.85-38.78-94.11-38.78h-56.67l321.9,323.77c45.28,40.53,106.83,70.93,168.16,75.96,44.08,3.61,97.74,7.12,141.93-6.63l4-1.43c.26-.09.53-.19.79-.28l1.15-.41v-.02c44.8-16.66,76.78-59.67,77.08-110.21,0-.39,0-.79,0-1.18,0-.66-.03-1.31-.04-1.96ZM671.67,561.01c-16.18,10.48-84.01,8.73-106.3,7.21-42.17-2.88-85.92-17.06-118.38-44.37v-194.59l5.31-5.31h127.37c.26,0,.55.07.82.1.63-.03,1.26-.1,1.89-.1,22.47,0,40.69,18.22,40.69,40.69s-17.46,39.86-39.26,40.61c-.2,0-.4.07-.6.07h-125.6c16.94,50,60.89,76.56,111.9,80.92,31.9,2.73,99.49-10.94,116.01,18.44,11.65,20.71,5.68,43.67-13.84,56.33Z"/>
    <path class="c" d="M134.74,478.1c-.14-35.25-14.2-69.02-39.13-93.95l-40.08-40.08h0s0,0,0,0h0s-1.25,223.9-1.25,223.9l81.12,81.12-.66-171Z"/>
  </g>
  <g>
    <polygon class="b" points="128.38 779.21 61.57 779.21 61.57 733.24 54.29 733.24 54.29 833.17 61.57 833.17 61.57 785.63 128.38 785.63 128.38 833.17 135.66 833.17 135.66 733.24 128.38 733.24 128.38 779.21"/>
    <path class="b" d="M278.57,746.94c-4.66-4.56-10.16-8.11-16.49-10.63-6.33-2.52-13.21-3.78-20.63-3.78s-14.3,1.26-20.63,3.78c-6.33,2.52-11.85,6.09-16.56,10.71-4.71,4.62-8.35,9.99-10.92,16.13-2.57,6.14-3.85,12.83-3.85,20.06s1.28,13.92,3.85,20.06c2.57,6.14,6.21,11.52,10.92,16.13,4.71,4.62,10.23,8.19,16.56,10.71,6.33,2.52,13.2,3.78,20.63,3.78s14.3-1.26,20.63-3.78c6.33-2.52,11.82-6.07,16.49-10.64,4.66-4.57,8.3-9.92,10.92-16.06,2.62-6.14,3.93-12.87,3.93-20.2s-1.31-14.06-3.93-20.2c-2.62-6.14-6.26-11.5-10.92-16.06ZM282.64,800.62c-2.24,5.33-5.35,9.99-9.35,13.99-4,4-8.71,7.09-14.13,9.28-5.43,2.19-11.33,3.28-17.7,3.28s-12.28-1.09-17.7-3.28c-5.43-2.19-10.16-5.28-14.21-9.28-4.05-4-7.19-8.66-9.42-13.99-2.24-5.33-3.35-11.14-3.35-17.42s1.12-12.21,3.35-17.49c2.23-5.28,5.38-9.92,9.42-13.92,4.04-4,8.78-7.09,14.21-9.28,5.42-2.19,11.32-3.28,17.7-3.28s12.28,1.09,17.7,3.28c5.42,2.19,10.13,5.28,14.13,9.28,4,3.99,7.11,8.63,9.35,13.92,2.23,5.28,3.35,11.11,3.35,17.49s-1.12,12.09-3.35,17.42Z"/>
    <polygon class="b" points="354.52 733.24 347.24 733.24 347.24 833.17 412.05 833.17 412.05 826.6 354.52 826.6 354.52 733.24"/>
    <path class="b" d="M526.69,739.66c-8-4.28-17.28-6.42-27.84-6.42h-39.54v99.93h39.54c10.56,0,19.84-2.14,27.84-6.42,8-4.28,14.2-10.18,18.63-17.7,4.43-7.52,6.64-16.13,6.64-25.84s-2.21-18.32-6.64-25.84c-4.43-7.51-10.63-13.42-18.63-17.7ZM538.97,805.69c-3.81,6.52-9.18,11.64-16.13,15.35-6.95,3.71-15.13,5.57-24.56,5.57h-31.69v-86.8h31.69c9.42,0,17.61,1.86,24.56,5.57,6.95,3.71,12.32,8.83,16.13,15.35,3.81,6.52,5.71,14.01,5.71,22.48s-1.9,15.97-5.71,22.48Z"/>
    <rect class="b" x="605.78" y="733.24" width="7.28" height="99.93"/>
    <polygon class="b" points="750.54 819.99 682.59 733.24 676.45 733.24 676.45 833.17 683.73 833.17 683.73 746.41 751.83 833.17 757.82 833.17 757.82 733.24 750.54 733.24 750.54 819.99"/>
    <path class="b" d="M831.78,751.8c4.09-4,8.9-7.09,14.42-9.28,5.52-2.19,11.51-3.28,17.99-3.28,6.09,0,11.73.9,16.92,2.71,5.19,1.81,9.97,4.85,14.35,9.14l4.57-4.85c-4.38-4.57-9.66-8-15.85-10.28-6.19-2.28-12.9-3.42-20.13-3.42-7.62,0-14.59,1.26-20.91,3.78-6.33,2.52-11.87,6.07-16.63,10.63-4.76,4.57-8.42,9.92-10.99,16.06-2.57,6.14-3.85,12.87-3.85,20.2s1.28,14.06,3.85,20.2c2.57,6.14,6.21,11.49,10.92,16.06,4.71,4.57,10.25,8.12,16.63,10.64,6.38,2.52,13.32,3.78,20.84,3.78,6.85,0,13.39-1.07,19.63-3.21,6.23-2.14,11.59-5.35,16.06-9.64v-37.4h-7v34.31c-3.6,2.9-7.47,5.1-11.63,6.52-5.28,1.81-10.87,2.71-16.78,2.71-6.47,0-12.47-1.09-17.99-3.28-5.52-2.19-10.33-5.28-14.42-9.28-4.09-4-7.26-8.66-9.49-13.99-2.24-5.33-3.35-11.14-3.35-17.42s1.12-12.09,3.35-17.42c2.23-5.33,5.4-9.99,9.49-13.99Z"/>
    <path class="b" d="M1018.94,794.91c-2.28-3.23-5.28-5.8-8.99-7.71-3.71-1.9-7.76-3.45-12.13-4.64-4.38-1.19-8.8-2.31-13.28-3.35-4.47-1.05-8.57-2.33-12.28-3.85-3.71-1.52-6.69-3.57-8.92-6.14-2.24-2.57-3.35-6-3.35-10.28,0-3.71,1-7.07,3-10.07,2-3,5.09-5.4,9.28-7.21,4.19-1.81,9.47-2.71,15.85-2.71,4.47,0,9.11.69,13.92,2.07,4.8,1.38,9.3,3.5,13.49,6.35l2.71-5.85c-3.81-2.76-8.4-4.95-13.78-6.57-5.38-1.62-10.83-2.42-16.35-2.42-8.19,0-14.9,1.24-20.13,3.71-5.23,2.48-9.09,5.71-11.56,9.71-2.48,3.99-3.71,8.37-3.71,13.13,0,5.23,1.12,9.49,3.36,12.78,2.23,3.28,5.21,5.88,8.92,7.78,3.71,1.9,7.8,3.45,12.28,4.64,4.47,1.19,8.9,2.31,13.28,3.35,4.38,1.05,8.42,2.33,12.13,3.85,3.71,1.52,6.71,3.57,8.99,6.14,2.28,2.57,3.43,6,3.43,10.28,0,3.62-1.02,6.9-3.07,9.85-2.05,2.95-5.19,5.31-9.42,7.07-4.24,1.76-9.68,2.64-16.35,2.64s-12.97-1.21-18.92-3.64c-5.95-2.42-10.63-5.4-14.06-8.92l-3.28,5.43c3.62,3.99,8.73,7.26,15.35,9.78,6.61,2.52,13.63,3.78,21.06,3.78,8.28,0,15.06-1.21,20.34-3.64,5.28-2.43,9.21-5.66,11.78-9.71,2.57-4.04,3.86-8.4,3.86-13.06,0-5.14-1.14-9.33-3.43-12.56Z"/>
  </g>
</svg>